<svg width="32" height="32" viewBox="0 0 32 32" fill="none" xmlns="http://www.w3.org/2000/svg">
<path d="M16 2.66663C23.364 2.66663 29.3333 8.63596 29.3333 16C29.3333 23.364 23.364 29.3333 16 29.3333C8.636 29.3333 2.66666 23.364 2.66666 16C2.66666 8.63596 8.636 2.66663 16 2.66663ZM16 4.66663C12.9942 4.66663 10.1115 5.86067 7.98612 7.98608C5.86071 10.1115 4.66666 12.9942 4.66666 16C4.66666 19.0057 5.86071 21.8884 7.98612 24.0138C10.1115 26.1393 12.9942 27.3333 16 27.3333C19.0058 27.3333 21.8885 26.1393 24.0139 24.0138C26.1393 21.8884 27.3333 19.0057 27.3333 16C27.3333 12.9942 26.1393 10.1115 24.0139 7.98608C21.8885 5.86067 19.0058 4.66663 16 4.66663V4.66663ZM16 9.33329C16.2652 9.33329 16.5196 9.43865 16.7071 9.62619C16.8946 9.81372 17 10.0681 17 10.3333V15H21.6667C21.9319 15 22.1862 15.1053 22.3738 15.2929C22.5613 15.4804 22.6667 15.7347 22.6667 16C22.6667 16.2652 22.5613 16.5195 22.3738 16.7071C22.1862 16.8946 21.9319 17 21.6667 17H17V21.6666C17 21.9318 16.8946 22.1862 16.7071 22.3737C16.5196 22.5613 16.2652 22.6666 16 22.6666C15.7348 22.6666 15.4804 22.5613 15.2929 22.3737C15.1054 22.1862 15 21.9318 15 21.6666V17H10.3333C10.0681 17 9.81376 16.8946 9.62622 16.7071C9.43869 16.5195 9.33333 16.2652 9.33333 16C9.33333 15.7347 9.43869 15.4804 9.62622 15.2929C9.81376 15.1053 10.0681 15 10.3333 15H15V10.3333C15 10.0681 15.1054 9.81372 15.2929 9.62619C15.4804 9.43865 15.7348 9.33329 16 9.33329V9.33329Z" fill="#8C97AB"/>
</svg>
