<svg width="24" height="24" viewBox="0 0 24 24" fill="none" xmlns="http://www.w3.org/2000/svg">
<path opacity="0.5" d="M6.3459 21.2032C5.37281 21.1177 4.46709 20.6706 3.80732 19.9501C3.14755 19.2296 2.78162 18.288 2.78169 17.3111V10.7374C2.78159 10.1362 2.92021 9.54311 3.18677 9.00425C3.45333 8.46539 3.84063 7.99532 4.31853 7.63065L9.63117 3.57845C10.3117 3.05951 11.1438 2.77844 11.9996 2.77844C12.8554 2.77844 13.6875 3.05951 14.368 3.57845L14.727 3.85218C13.7433 3.75431 12.7591 4.0335 11.9733 4.63335L5.65748 9.45303C5.49211 9.57916 5.35809 9.74179 5.26588 9.92824C5.17368 10.1147 5.12577 10.3199 5.1259 10.5279V18.367C5.12525 18.8982 5.23323 19.4239 5.44322 19.9119C5.6532 20.3998 5.96075 20.8396 6.34695 21.2043L6.3459 21.2032Z" fill="#001444"/>
<path d="M17.3126 22H6.68737C5.44445 21.9986 4.25285 21.5041 3.37407 20.625C2.49529 19.7459 2.00111 18.554 2 17.3109L2 10.7372C2.00273 10.0168 2.17046 9.30658 2.49034 8.66108C2.81021 8.01558 3.27371 7.45197 3.84526 7.0135L9.1579 2.9571C9.97531 2.33616 10.9735 2 12 2C13.0265 2 14.0247 2.33616 14.8421 2.9571L16.5263 4.24361V3.24661C16.5263 3.03943 16.6086 2.84074 16.7551 2.69424C16.9016 2.54774 17.1002 2.46544 17.3074 2.46544C17.5145 2.46544 17.7132 2.54774 17.8597 2.69424C18.0061 2.84074 18.0884 3.03943 18.0884 3.24661V5.82174C18.0884 5.96736 18.0477 6.11007 17.971 6.23379C17.8942 6.3575 17.7843 6.45729 17.6538 6.52188C17.5234 6.58647 17.3774 6.61331 17.2325 6.59935C17.0876 6.58539 16.9494 6.5312 16.8337 6.44289L13.8947 4.19939C13.3498 3.78543 12.6843 3.56133 12 3.56133C11.3157 3.56133 10.6502 3.78543 10.1053 4.19939L4.79263 8.25159C4.41144 8.54418 4.10241 8.9203 3.88927 9.35102C3.67613 9.78174 3.56457 10.2556 3.56316 10.7362V17.3098C3.56371 18.1386 3.89298 18.9332 4.47871 19.5194C5.06443 20.1056 5.85875 20.4355 6.68737 20.4366H17.3126C18.1412 20.4358 18.9357 20.1062 19.5216 19.5202C20.1075 18.9342 20.4371 18.1396 20.4379 17.3109V10.7372C20.4393 10.2561 20.3303 9.78111 20.1193 9.34874C19.9084 8.91636 19.6011 8.53814 19.2211 8.24317C19.0563 8.11752 18.9483 7.93157 18.9206 7.72624C18.893 7.5209 18.9481 7.313 19.0737 7.14826C19.1993 6.98352 19.3852 6.87545 19.5905 6.8478C19.7958 6.82016 20.0037 6.87522 20.1684 7.00087C20.7391 7.44209 21.201 8.00836 21.5185 8.6561C21.836 9.30385 22.0007 10.0158 22 10.7372V17.3109C21.9989 18.554 21.5047 19.7459 20.6259 20.625C19.7472 21.5041 18.5556 21.9986 17.3126 22V22Z" fill="#001444"/>
<path d="M11.4142 11.9975C11.4142 12.1907 11.3569 12.3796 11.2496 12.5403C11.1422 12.7009 10.9897 12.8262 10.8112 12.9001C10.6327 12.9741 10.4363 12.9934 10.2468 12.9557C10.0573 12.918 9.88321 12.825 9.7466 12.6883C9.60998 12.5517 9.51696 12.3776 9.47926 12.1881C9.44157 11.9986 9.46092 11.8021 9.53485 11.6236C9.60879 11.4451 9.734 11.2925 9.89464 11.1852C10.0553 11.0778 10.2441 11.0205 10.4373 11.0205C10.6964 11.0205 10.9449 11.1234 11.1281 11.3067C11.3113 11.4899 11.4142 11.7384 11.4142 11.9975ZM13.5626 11.0205C13.3694 11.0205 13.1805 11.0778 13.0199 11.1852C12.8593 11.2925 12.734 11.4451 12.6601 11.6236C12.5862 11.8021 12.5668 11.9986 12.6045 12.1881C12.6422 12.3776 12.7353 12.5517 12.8719 12.6883C13.0085 12.825 13.1825 12.918 13.372 12.9557C13.5615 12.9934 13.7579 12.9741 13.9364 12.9001C14.1149 12.8262 14.2675 12.7009 14.3748 12.5403C14.4822 12.3796 14.5394 12.1907 14.5394 11.9975C14.5395 11.7391 14.4371 11.4912 14.2548 11.3081C14.0725 11.125 13.8251 11.0216 13.5668 11.0205H13.5626ZM10.4373 14.1462C10.2441 14.1462 10.0553 14.2035 9.89464 14.3109C9.734 14.4183 9.60879 14.5708 9.53485 14.7494C9.46092 14.9279 9.44157 15.1243 9.47926 15.3138C9.51696 15.5033 9.60998 15.6774 9.7466 15.8141C9.88321 15.9507 10.0573 16.0437 10.2468 16.0814C10.4363 16.1191 10.6327 16.0998 10.8112 16.0258C10.9897 15.9519 11.1422 15.8267 11.2496 15.666C11.3569 15.5054 11.4142 15.3165 11.4142 15.1232C11.4142 14.8643 11.3114 14.616 11.1284 14.4328C10.9455 14.2496 10.6973 14.1465 10.4384 14.1462H10.4373ZM13.5626 14.1462C13.3694 14.1462 13.1805 14.2035 13.0199 14.3109C12.8593 14.4183 12.734 14.5708 12.6601 14.7494C12.5862 14.9279 12.5668 15.1243 12.6045 15.3138C12.6422 15.5033 12.7353 15.6774 12.8719 15.8141C13.0085 15.9507 13.1825 16.0437 13.372 16.0814C13.5615 16.1191 13.7579 16.0998 13.9364 16.0258C14.1149 15.9519 14.2675 15.8267 14.3748 15.666C14.4822 15.5054 14.5394 15.3165 14.5394 15.1232C14.5395 14.8648 14.4371 14.617 14.2548 14.4339C14.0725 14.2508 13.8251 14.1474 13.5668 14.1462H13.5626Z" fill="#001444"/>
</svg>
