<svg width="24" height="24" viewBox="0 0 24 24" fill="none" xmlns="http://www.w3.org/2000/svg">
<path opacity="0.5" d="M5.29586 3.8419C5.2843 3.8501 5.27275 3.85836 5.26122 3.86669C4.56065 4.37272 3.84409 5.19902 3.90881 6.41247L5.29586 3.8419Z" fill="#8C97AB" stroke="#8C97AB"/>
<path d="M21.4997 6.66891C21.4004 6.70228 21.1803 6.74778 20.7453 6.72947L20.7348 6.72902H20.7243H18.9143H18.4131L18.4143 7.23017L18.4347 16.1566H18.4347L18.4348 16.1633C18.4417 16.6018 18.3002 17.041 18.0138 17.4309L18.0095 17.4367L18.0054 17.4427C17.8329 17.6923 17.5765 17.9097 17.2536 18.0636C16.9308 18.2176 16.5593 18.2993 16.1782 18.2962V18.2962H16.1742H10.2739H10.2726V18.7962M21.4997 6.66891L5.06886 21.3871C5.06875 21.3872 5.06846 21.3875 5.06797 21.3878L5.06645 21.3891L5.06807 21.3877L5.06263 21.3918C5.055 21.3974 5.04138 21.407 5.02302 21.4183C4.9846 21.4419 4.93474 21.4674 4.88194 21.4837C4.789 21.5123 4.72291 21.509 4.64388 21.4362M21.4997 6.66891V5.31666V5.30896L21.4997 5.30897C21.5045 5.0009 21.4494 4.69274 21.3349 4.39578C21.1157 3.83568 20.6633 3.33489 20.0297 2.99425C19.4173 2.66704 18.6967 2.49317 17.9574 2.50021L17.9526 2.50025V2.50023H6.19586H6.19141L6.19141 2.50021C5.67223 2.49559 5.15719 2.56778 4.67065 2.71258C3.41745 3.1025 2.90161 3.81927 2.67698 4.40766C2.56072 4.71218 2.51821 4.99526 2.50508 5.20171C2.49856 5.30438 2.49941 5.38627 2.50161 5.43997C2.5027 5.46675 2.50412 5.48633 2.50509 5.49774L2.50609 5.50853L2.50609 5.50854L2.5096 5.53686V5.56771V16.3507V16.3549H2.50958C2.50678 16.6953 2.61786 17.0376 2.84298 17.3437C3.06759 17.649 3.39826 17.907 3.80668 18.0785M21.4997 6.66891L3.80668 18.0785M10.2726 18.7962C10.0715 18.7952 9.87574 18.8497 9.71565 18.9512L5.3846 21.7748M10.2726 18.7962H16.1742M10.2726 18.7962H16.1742M5.3846 21.7748C5.06417 21.391 5.06434 21.3908 5.0645 21.3907L5.06417 21.391L5.3846 21.7748ZM5.3846 21.7748C5.3846 21.7748 4.79796 22.2645 4.30044 21.7996M4.30044 21.7996L4.64597 21.4382C4.64527 21.4375 4.64457 21.4369 4.64388 21.4362M4.30044 21.7996L4.64182 21.4343C4.64251 21.4349 4.6432 21.4356 4.64388 21.4362M4.30044 21.7996C4.12565 21.6325 4.03167 21.417 4.03682 21.1952V18.9961C4.03605 18.9074 4.00488 18.8207 3.94698 18.7463C3.88909 18.6719 3.80689 18.6128 3.71009 18.5762L3.62284 18.5436M4.64388 21.4362C4.56209 21.357 4.53513 21.274 4.53669 21.2068L4.53682 21.2068V21.1952L4.53684 18.9961L4.53681 18.9918C4.53502 18.7862 4.46239 18.5945 4.34162 18.4393C4.22192 18.2854 4.06124 18.1745 3.88726 18.1086L3.88482 18.1077L3.80668 18.0785M3.80668 18.0785C3.80943 18.0797 3.81218 18.0808 3.81493 18.082L3.62284 18.5436M3.80668 18.0785L3.79756 18.0751L3.62284 18.5436M3.80668 18.0785L2.0096 16.3507C2.00585 16.8056 2.15505 17.2523 2.44023 17.6399C2.72541 18.0276 3.13514 18.3407 3.62284 18.5436M16.1742 18.7962C16.628 18.7999 17.0748 18.7028 17.4688 18.5149C17.8629 18.327 18.19 18.0551 18.4167 17.7269L16.1742 18.7962ZM9.07641 6.71577C8.98388 6.69554 8.93812 6.66861 8.91801 6.65192V6.64788V5.49823C8.9245 4.98736 8.77951 4.48847 8.50389 4.04691C8.32705 3.75659 8.08724 3.50433 7.80278 3.30122C7.51745 3.09749 7.1911 2.94588 6.84362 2.85186C6.4961 2.75784 6.13136 2.72244 5.76954 2.74687C5.41041 2.77112 5.05816 2.85405 4.73242 2.99284C4.24145 3.18682 3.81137 3.49325 3.49593 3.88891C3.17804 4.28764 2.98954 4.76156 2.96385 5.25993L2.96316 5.27342L2.96319 5.28693L2.991 16.2906L2.99078 16.2945C2.99008 16.3103 2.98953 16.3305 2.98962 16.3546C2.9898 16.4026 2.99251 16.467 3.00189 16.5428C3.02045 16.6929 3.06642 16.8985 3.17914 17.1124C3.42231 17.5737 3.91976 17.9678 4.79295 18.0319L4.8011 18.0325L4.80927 18.0328C4.88664 18.0359 4.95848 18.0544 5.01839 18.0832C5.0463 18.0971 5.0613 18.1121 5.06785 18.1207C5.06803 18.1209 5.06821 18.1211 5.06838 18.1214V20.0701V20.9943L5.84195 20.4886L9.38341 18.1737C9.38346 18.1737 9.38351 18.1737 9.38356 18.1736C9.51909 18.0854 9.69597 18.0312 9.88665 18.0301C9.88687 18.0301 9.88709 18.0301 9.88731 18.0301L16.0971 18.0131C16.4592 18.0203 16.8209 17.9309 17.1299 17.7495C17.4414 17.5667 17.692 17.2939 17.8239 16.9583L17.824 16.9581C17.9104 16.738 17.9534 16.5049 17.9496 16.2693L17.9681 7.2006L17.9691 6.69814L17.4667 6.69958L9.90914 6.72127L9.90572 6.7213C9.82108 6.72212 9.73734 6.726 9.66395 6.7294L9.64807 6.73014C9.5675 6.73385 9.49842 6.73677 9.43162 6.73677H9.41868L9.40577 6.73744C9.30971 6.74242 9.18645 6.73983 9.07641 6.71577ZM20.676 6.51714H21.176V6.02198C21.2086 5.26447 21.0654 4.65582 20.8057 4.17311C20.5449 3.68841 20.1821 3.35931 19.8213 3.13881C19.4634 2.92014 19.1059 2.80698 18.8415 2.74785C18.7083 2.71805 18.5956 2.7013 18.514 2.69189C18.4732 2.68718 18.4398 2.68428 18.4153 2.6825C18.403 2.68162 18.393 2.68101 18.3852 2.6806L18.3754 2.68012L18.3718 2.67998L18.3704 2.67992L18.3697 2.6799C18.3694 2.67989 18.3692 2.67988 18.3518 3.17957L18.3692 2.67988L18.3605 2.67957H18.3518H8.86726H7.35038L8.56994 3.58157C9.01085 3.90767 9.20501 4.45186 9.27211 4.99394C9.30469 5.25709 9.30429 5.49821 9.29544 5.67393C9.29105 5.76122 9.28464 5.8309 9.27956 5.8773C9.27702 5.90046 9.27482 5.91771 9.27339 5.92832L9.27188 5.93914L9.2718 5.93971L9.27176 5.93997L9.2717 5.94036L9.27169 5.94044L9.27166 5.94063L9.18094 6.51714H9.76577H20.676Z" fill="#8C97AB" stroke="#8C97AB"/>
<path d="M7.17729 9.58459H14.1773" stroke="#8C97AB" stroke-miterlimit="10" stroke-linecap="round"/>
<path d="M7.17729 12.2253H14.1773" stroke="#8C97AB" stroke-miterlimit="10" stroke-linecap="round"/>
<path d="M7 15L14 15" stroke="#8C97AB" stroke-miterlimit="10" stroke-linecap="round"/>
</svg>
