<svg width="24" height="24" viewBox="0 0 24 24" fill="none" xmlns="http://www.w3.org/2000/svg">
<path opacity="0.5" d="M7.09808 3.47409C7.10353 3.47644 7.10811 3.47999 7.1113 3.48436C7.1145 3.48874 7.11619 3.49376 7.11619 3.49889C7.11619 3.50401 7.1145 3.50903 7.1113 3.5134C7.10811 3.51778 7.10353 3.52133 7.09808 3.52368C6.6711 3.64921 4.30415 4.43957 4.40811 6.38603C4.52135 8.52466 4.43039 15.7216 4.43039 15.7216C4.43039 15.7216 4.4768 16.9304 5.50155 16.9614C5.50155 16.9614 6.04177 16.9893 6.14573 17.6076C6.16956 17.7704 6.15697 17.9354 6.1086 18.0943L5.53868 20.0578V18.1888C5.53868 18.1888 5.71504 17.5937 4.71813 17.5147C4.36341 17.4901 4.03276 17.355 3.79196 17.1362C3.55117 16.9174 3.41788 16.6309 3.41863 16.3338L3.39078 5.4407C3.39078 5.4407 3.30539 4.42407 4.27073 3.77474C4.25217 3.78094 5.67791 2.77671 7.09808 3.47409Z" fill="#001444"/>
<path d="M21.9997 6.8199V5.31666C22.0054 4.94281 21.9383 4.57067 21.801 4.2148C21.5334 3.53008 20.9912 2.94333 20.2658 2.55348C19.5758 2.18474 18.7718 1.99243 17.9526 2.00023H6.19586C5.62673 1.99516 5.06105 2.07439 4.52507 2.23424C1.70515 3.10984 2.0096 5.56771 2.0096 5.56771V16.3507C2.00585 16.8056 2.15505 17.2523 2.44023 17.6399C2.72541 18.0276 3.13514 18.3407 3.62284 18.5436L3.71009 18.5762C3.80689 18.6128 3.88909 18.6719 3.94698 18.7463C4.00488 18.8207 4.03605 18.9074 4.03682 18.9961V21.1952C4.03167 21.417 4.12565 21.6325 4.30044 21.7996C4.79796 22.2645 5.3846 21.7748 5.3846 21.7748L9.71565 18.9512C9.87574 18.8497 10.0715 18.7952 10.2726 18.7962H16.1742C16.628 18.7999 17.0748 18.7028 17.4688 18.5149C17.8629 18.327 18.19 18.0551 18.4167 17.7269C18.7638 17.2545 18.9434 16.7096 18.9347 16.1555L18.9143 7.22902H20.7243C22.0498 7.28482 21.9997 6.8199 21.9997 6.8199ZM17.4495 16.2733C17.4529 16.4437 17.4222 16.6134 17.3586 16.7754C17.2723 16.995 17.1033 17.1854 16.8768 17.3183C16.6504 17.4513 16.3785 17.5196 16.1018 17.513L9.88459 17.5301C9.60391 17.5316 9.33172 17.6106 9.11045 17.7548L5.56838 20.0701V18.0679C5.55828 17.9789 5.52308 17.8932 5.46564 17.8177C5.4082 17.7423 5.33017 17.6793 5.23794 17.6339C5.11341 17.5736 4.97335 17.539 4.82952 17.5332C3.39264 17.4278 3.49104 16.3043 3.49104 16.3043L3.46319 5.28566C3.48314 4.89847 3.62967 4.52323 3.88688 4.2006C4.1441 3.87797 4.50219 3.62027 4.92234 3.45543C5.19655 3.33775 5.49591 3.26649 5.80323 3.24573C6.11054 3.22498 6.41973 3.25515 6.71303 3.33451C7.00632 3.41387 7.27793 3.54084 7.51223 3.70814C7.74653 3.87544 7.9389 4.07975 8.07828 4.30933C8.30712 4.67501 8.42385 5.08233 8.41801 5.49487V6.64788C8.41488 6.75732 8.45039 6.86511 8.52011 6.95782C8.74288 7.23058 9.19214 7.24917 9.43162 7.23677C9.59127 7.23677 9.75092 7.22283 9.91058 7.22128L17.4681 7.19958L17.4495 16.2733ZM20.676 6.01714H9.76577C9.76577 6.01714 10.0721 4.07067 8.86726 3.17957H18.3518C18.3518 3.17957 20.8004 3.26481 20.676 6.01094V6.01714Z" fill="#001444"/>
<path d="M7.17729 9.58447H14.1773" stroke="#001444" stroke-miterlimit="10" stroke-linecap="round"/>
<path d="M7.17729 12.2256H14.1773" stroke="#001444" stroke-miterlimit="10" stroke-linecap="round"/>
<path d="M7 15L14 15" stroke="#001444" stroke-miterlimit="10" stroke-linecap="round"/>
</svg>
