<svg width="16" height="16" viewBox="0 0 16 16" fill="none" xmlns="http://www.w3.org/2000/svg">
<path d="M14.2197 15.5303C14.5126 15.8232 14.9874 15.8232 15.2803 15.5303C15.5732 15.2374 15.5732 14.7626 15.2803 14.4697L14.2197 15.5303ZM12.8 7.4C12.8 10.5204 10.2704 13.05 7.15 13.05V14.55C11.0989 14.55 14.3 11.3489 14.3 7.4H12.8ZM7.15 13.05C4.0296 13.05 1.5 10.5204 1.5 7.4H0C0 11.3489 3.20117 14.55 7.15 14.55V13.05ZM1.5 7.4C1.5 4.2796 4.0296 1.75 7.15 1.75V0.25C3.20117 0.25 0 3.45117 0 7.4H1.5ZM7.15 1.75C10.2704 1.75 12.8 4.2796 12.8 7.4H14.3C14.3 3.45117 11.0989 0.25 7.15 0.25V1.75ZM11.2197 12.5303L14.2197 15.5303L15.2803 14.4697L12.2803 11.4697L11.2197 12.5303Z" fill="#8C97AB"/>
</svg>
