<svg width="24" height="24" viewBox="0 0 24 24" fill="none" xmlns="http://www.w3.org/2000/svg">
<path opacity="0.5" d="M6.8108 6.28665C6.44747 7.08872 6.42947 8.00047 6.94703 8.96749H6.91998H6.08047C5.95402 8.14422 6.05369 7.2993 6.3724 6.52459L6.37283 6.52355C6.63797 5.87494 7.05724 5.30101 7.59417 4.85156C7.97602 4.55413 8.39887 4.31584 8.84844 4.14351C8.76419 4.19864 8.68037 4.2554 8.59737 4.31377C7.88144 4.81725 7.17926 5.47323 6.8108 6.28665Z" fill="#8C97AB" stroke="#8C97AB"/>
<path d="M17.75 9.57757H17.75V7.62564C17.75 4.86845 14.9931 2.5 11.38 2.5C7.76585 2.5 5 4.86928 5 7.62564V9.56755V9.57273L4.99997 9.57273C4.99846 9.7187 4.95384 9.86108 4.87156 9.98188C4.78937 10.1025 4.67334 10.1962 4.53806 10.2511M17.75 9.57757L21.5 16.4044V16.4053C21.5012 17.074 21.3707 17.7363 21.1159 18.3544C20.8611 18.9725 20.487 19.5343 20.0152 20.0074C19.5433 20.4806 18.9829 20.856 18.366 21.1121C17.7491 21.3682 17.0878 21.5 16.42 21.5H12C11.8013 21.5 11.6106 21.421 11.4698 21.2801C11.3291 21.1392 11.25 20.9481 11.25 20.7488C11.25 20.5493 11.3291 20.3582 11.4698 20.2173C11.6105 20.0765 11.8012 19.9975 12 19.9975L13.25 19.9975L13.2554 19.9975C13.4281 19.9956 13.596 20.0543 13.7301 20.1634C13.8622 20.2709 13.9533 20.4208 13.9879 20.5878C14.0164 20.756 14.1 20.91 14.2256 21.0257C14.3554 21.1452 14.5222 21.2165 14.6983 21.2277L14.7141 21.2287H14.73L16.42 21.2287L16.4211 21.2287C17.703 21.2258 18.9313 20.7139 19.8365 19.8057C20.7417 18.8975 21.25 17.6671 21.25 16.3843V16.3694L21.2491 16.3545C21.2396 16.1964 21.1804 16.0455 21.0801 15.9233C20.9796 15.8008 20.843 15.7134 20.6899 15.6734C20.5368 15.6335 20.3749 15.6428 20.2272 15.7006C20.0795 15.7584 19.9543 15.8614 19.869 15.9945L19.8571 16.013L19.8469 16.0325C19.5744 16.5536 19.1651 16.9904 18.6631 17.2959C18.1614 17.6012 17.5861 17.7638 16.999 17.7662H16.25V10.0075H17H17.5V9.50749V7.62564C17.5 4.87178 14.6674 2.75125 11.38 2.75125C8.09703 2.75125 5.25 4.82825 5.25 7.62564V9.50749V10.0075H5.75H6.5V17.7662H6C5.0719 17.7662 4.18171 17.3972 3.5253 16.7401C2.86887 16.083 2.5 15.1917 2.5 14.2622V13.2628C2.50412 12.6153 2.69989 11.9837 3.06253 11.4477C3.42535 10.9114 3.93888 10.495 4.53806 10.2511M17.75 9.57757L17.75 9.58276C17.7515 9.72872 17.7962 9.8711 17.8784 9.9919C17.9598 10.1113 18.0742 10.2043 18.2077 10.2593C18.9787 10.5862 19.5943 11.1975 19.9273 11.966L17.75 9.57757ZM4.53806 10.2511C4.53792 10.2511 4.53778 10.2512 4.53764 10.2512L4.35001 9.78777M4.53806 10.2511C4.53821 10.251 4.53835 10.2509 4.53849 10.2509L4.35001 9.78777M4.35001 9.78777C4.39393 9.76999 4.43162 9.73959 4.45831 9.7004C4.48501 9.66121 4.49951 9.61498 4.5 9.56755L4.35001 9.78777Z" fill="#8C97AB" stroke="#8C97AB"/>
</svg>
