<svg width="24" height="24" viewBox="0 0 24 24" fill="none" xmlns="http://www.w3.org/2000/svg">
<path opacity="0.5" d="M11.89 3.24079C11.89 3.24079 5.35 5.31286 7.47 8.87642C7.58673 9.06665 7.6522 9.2839 7.66 9.50702L7.73999 13.6912C7.75019 13.734 7.75019 13.7785 7.73999 13.8213L6.91998 15.2027V9.467H5.66998C5.41753 8.42346 5.50156 7.32669 5.91 6.33387C6.20703 5.60725 6.67741 4.96455 7.28 4.46201C7.89594 3.98063 8.60908 3.63908 9.36999 3.46101C10.1877 3.22439 11.0437 3.14959 11.89 3.24079Z" fill="#001444"/>
<path d="M20.4 11.7998C20.019 10.8973 19.3016 10.1791 18.4 9.79779C18.3561 9.78001 18.3184 9.74961 18.2917 9.71042C18.265 9.67123 18.2505 9.625 18.25 9.57757V7.62564C18.25 4.50252 15.17 2 11.38 2C7.59 2 4.5 4.50252 4.5 7.62564V9.56755C4.49951 9.61498 4.48501 9.66121 4.45831 9.7004C4.43162 9.73959 4.39393 9.76999 4.35001 9.78777C3.65892 10.069 3.06673 10.5492 2.64841 11.1675C2.23008 11.7858 2.00443 12.5145 2 13.2612V14.2622C2 15.3242 2.42142 16.3426 3.17157 17.0935C3.92172 17.8444 4.93913 18.2662 6 18.2662H6.75998C6.82453 18.2636 6.88559 18.2362 6.93033 18.1895C6.97507 18.1428 7.00005 18.0807 7 18.016V9.50749H5.75V7.62564C5.75 5.21323 8.25 3.25125 11.38 3.25125C14.51 3.25125 17 5.25327 17 7.62564V9.50749H15.75V18.2662H17C17.6784 18.2636 18.3433 18.0758 18.923 17.723C19.5027 17.3703 19.9754 16.8659 20.29 16.2642C20.3185 16.2198 20.3603 16.1855 20.4094 16.1662C20.4585 16.147 20.5125 16.1439 20.5635 16.1572C20.6146 16.1705 20.6601 16.1997 20.6936 16.2405C20.7271 16.2813 20.7468 16.3316 20.75 16.3844C20.75 17.5348 20.2941 18.6383 19.4824 19.4527C18.6706 20.2672 17.5693 20.7261 16.42 20.7287H14.73C14.6683 20.7248 14.6098 20.6998 14.5643 20.6579C14.5188 20.616 14.489 20.5597 14.48 20.4985C14.424 20.2142 14.2703 19.9584 14.0457 19.7756C13.821 19.5927 13.5395 19.4944 13.25 19.4975H12C11.6685 19.4975 11.3505 19.6293 11.1161 19.864C10.8817 20.0986 10.75 20.4169 10.75 20.7488C10.75 21.0806 10.8817 21.3988 11.1161 21.6335C11.3505 21.8681 11.6685 22 12 22H16.42C17.1536 22 17.88 21.8552 18.5577 21.5739C19.2353 21.2925 19.8509 20.8802 20.3692 20.3605C20.8875 19.8408 21.2983 19.2238 21.5781 18.545C21.858 17.8661 22.0013 17.1387 22 16.4044V12.2302C22 12.1665 21.9747 12.1054 21.9297 12.0603C21.8847 12.0153 21.8236 11.99 21.76 11.99H20.69C20.6265 12.002 20.5608 11.9888 20.5067 11.9534C20.4526 11.9179 20.4144 11.8629 20.4 11.7998Z" fill="#001444"/>
</svg>
